<?xml version="1.0" encoding="utf-8"?>
<!-- Svg Vector Icons : http://www.onlinewebfonts.com/icon -->
<!DOCTYPE svg PUBLIC "-//W3C//DTD SVG 1.1//EN" "http://www.w3.org/Graphics/SVG/1.1/DTD/svg11.dtd">
<svg version="1.1" xmlns="http://www.w3.org/2000/svg" xmlns:xlink="http://www.w3.org/1999/xlink" x="0px" y="0px" viewBox="0 0 1000 1000" enable-background="new 0 0 1000 1000" xml:space="preserve">
<metadata> Svg Vector Icons : http://www.onlinewebfonts.com/icon </metadata>
<g><g transform="translate(0.000000,512.000000) scale(0.100000,-0.100000)"><path d="M1245.6,4995.3c-27.3-15.6-60.5-52.7-74.1-82c-15.6-41-21.5-1266.3-17.6-4829.1l5.8-4774.5l44.9-44.9l44.9-44.9h3754h3754l44.9,44.9l44.9,44.9v3929.6v3931.6l-922.9,920.9l-920.9,922.9l-2854.5,3.9C1711.9,5022.6,1288.5,5018.7,1245.6,4995.3z M6769.3,3848v-827.3l50.7-46.8l50.7-46.8l817.5-5.8l817.5-5.9v-3676v-3677.9H5003.5H1501.2V117.4v4555.9h2634.1h2634.1V3848z M7686.3,3844.1l575.6-575.6h-581.4H7101v575.6c0,316.1,1.9,575.6,5.8,575.6C7108.8,4419.7,7370.3,4160.2,7686.3,3844.1z"/><path d="M3690.4,2183.7c-25.4-17.6-175.6-228.3-337.6-468.3c-160-240-296.6-437.1-304.4-437.1c-5.8,0-66.3,52.7-134.6,117.1c-144.4,140.5-208.8,152.2-302.4,60.5c-105.4-105.4-76.1-173.7,193.2-435.1c163.9-161.9,202.9-191.2,255.6-191.2c35.1,0,80,9.8,101.5,19.5c21.5,11.7,204.9,271.2,407.8,575.6c308.3,460.5,370.7,567.8,370.7,624.4C3940.1,2183.7,3797.7,2259.7,3690.4,2183.7z"/><path d="M4710.8,1463.7c-33.2-31.2-48.8-68.3-48.8-117.1s15.6-85.8,48.8-117.1l46.8-48.8h1287.8c708.3,0,1301.4,5.9,1319,11.7c37.1,15.6,87.8,107.3,87.8,163.9c0,23.4-25.4,68.3-56.6,99.5l-56.6,56.6H6047.4H4757.7L4710.8,1463.7z"/><path d="M3690.4,94c-13.7-5.8-158-208.8-320-452.7c-161.9-241.9-300.5-448.8-310.2-458.5c-9.8-11.7-68.3,31.2-142.4,101.5c-105.4,101.5-136.6,121-195.1,121c-121,0-197.1-119-148.3-234.1c11.7-31.2,113.2-144.4,224.4-251.7c175.6-169.8,210.7-197.1,267.3-197.1c37.1,0,83.9,13.7,105.4,29.3c23.4,15.6,204.9,277.1,405.8,581.4C3971.3-66,3985-32.9,3891.3,58.9C3846.5,105.7,3756.7,121.3,3690.4,94z"/><path d="M4710.8-643.6c-33.2-31.2-48.8-68.3-48.8-117.1s15.6-85.9,48.8-117.1l46.8-48.8h1297.5h1295.6l50.7,60.5c27.3,33.2,50.7,76.1,50.7,97.6c0,54.6-50.7,146.3-87.8,161.9c-17.6,5.9-610.7,11.7-1319,11.7H4757.7L4710.8-643.6z"/><path d="M3690.4-2013.3c-13.7-5.8-158-208.8-320-452.7c-161.9-241.9-300.5-448.8-310.2-460.5c-11.7-11.7-64.4,29.3-140.5,103.4c-103.4,103.4-132.7,121-193.2,121c-91.7,0-150.2-50.7-165.8-142.4c-11.7-72.2-7.8-76.1,201-288.8c117.1-119,228.3-224.4,249.7-236.1c19.5-9.8,66.3-13.7,101.5-5.8c62.4,11.7,93.7,50.7,446.8,581.4c413.6,620.5,433.2,661.4,335.6,751.2C3852.3-2001.6,3754.8-1987.9,3690.4-2013.3z"/><path d="M4921.5-2698.1c-167.8-5.9-183.4-9.8-220.5-56.6c-42.9-56.6-50.7-154.1-13.7-202.9c58.5-76.1,74.2-76.1,1379.5-76.1H7339l58.5,58.5c50.7,52.7,58.5,70.2,48.8,132.7c-17.6,99.5-74.1,140.5-197.1,142.4C6896.1-2696.2,5069.8-2694.2,4921.5-2698.1z"/></g></g>
</svg>