<?xml version="1.0" encoding="UTF-8" standalone="no"?>
<!-- Created with Inkscape (http://www.inkscape.org/) -->

<svg
   width="40.299999mm"
   height="14.5mm"
   viewBox="0 0 40.299999 14.5"
   version="1.1"
   id="svg5"
   sodipodi:docname="rs_school_js_invert.svg"
   inkscape:version="1.1.1 (3bf5ae0d25, 2021-09-20)"
   xmlns:inkscape="http://www.inkscape.org/namespaces/inkscape"
   xmlns:sodipodi="http://sodipodi.sourceforge.net/DTD/sodipodi-0.dtd"
   xmlns="http://www.w3.org/2000/svg"
   xmlns:svg="http://www.w3.org/2000/svg">
  <sodipodi:namedview
     id="namedview7"
     pagecolor="#ffffff"
     bordercolor="#666666"
     borderopacity="1.0"
     inkscape:pageshadow="2"
     inkscape:pageopacity="0.0"
     inkscape:pagecheckerboard="0"
     inkscape:document-units="mm"
     showgrid="false"
     inkscape:zoom="4.0920137"
     inkscape:cx="60.605858"
     inkscape:cy="12.585491"
     inkscape:window-width="1920"
     inkscape:window-height="1001"
     inkscape:window-x="-9"
     inkscape:window-y="-9"
     inkscape:window-maximized="1"
     inkscape:current-layer="layer1" />
  <defs
     id="defs2" />
  <g
     inkscape:label="Слой 1"
     inkscape:groupmode="layer"
     id="layer1">
    <g
       id="g6536"
       transform="matrix(0.16017379,0,0,0.14319708,3.9860969,-3.5296786)">
      <ellipse
         transform="rotate(-37.001)"
         class="st0"
         cx="72.22142"
         cy="137.26501"
         rx="16.668749"
         ry="13.705416"
         id="ellipse3926"
         style="fill:#000000;fill-opacity:1;stroke:#ffffff;stroke-width:2.5;stroke-miterlimit:4;stroke-dasharray:none;stroke-opacity:1" />
      <path
         d="m 104.54163,66.19222 6.95855,-0.449791 c 0.15875,1.137708 0.44979,1.984375 0.92604,2.592916 0.76729,0.9525 1.82562,1.42875 3.22791,1.42875 1.03188,0 1.85209,-0.238125 2.40771,-0.740833 0.52917,-0.396875 0.84667,-1.031875 0.84667,-1.693333 0,-0.635 -0.29104,-1.243542 -0.79375,-1.640417 -0.52917,-0.47625 -1.77271,-0.9525 -3.73063,-1.375833 -3.20145,-0.714375 -5.50333,-1.666875 -6.8527,-2.883959 -1.34938,-1.137708 -2.11667,-2.804583 -2.06375,-4.577291 0,-1.217083 0.37041,-2.434167 1.05833,-3.439583 0.79375,-1.137709 1.87854,-2.037292 3.175,-2.54 1.40229,-0.608542 3.36021,-0.926042 5.82083,-0.926042 3.01625,0 5.31813,0.555625 6.90563,1.693333 1.5875,1.11125 2.54,2.910417 2.83104,5.371042 l -6.87917,0.396875 c -0.18521,-1.058333 -0.55562,-1.825625 -1.16416,-2.328333 -0.60855,-0.502709 -1.4023,-0.740834 -2.43417,-0.740834 -0.84667,0 -1.48167,0.185209 -1.905,0.529167 -0.39688,0.3175 -0.66146,0.79375 -0.635,1.322917 0,0.396875 0.21167,0.767291 0.52917,1.005416 0.34395,0.3175 1.16416,0.608542 2.46062,0.873125 3.20146,0.687917 5.47688,1.375834 6.87917,2.090209 1.40229,0.714375 2.40771,1.587499 3.01625,2.619374 0.635,1.058334 0.9525,2.275417 0.92604,3.518959 0,1.481666 -0.42333,2.963333 -1.27,4.206875 -0.87313,1.296458 -2.09021,2.301875 -3.51896,2.910416 -1.50812,0.661459 -3.41312,1.005417 -5.68854,1.005417 -4.02167,0 -6.79979,-0.767292 -8.36083,-2.328333 -1.56105,-1.561042 -2.48709,-3.518959 -2.6723,-5.900209 z m -73.845203,7.831667 v -23.65375 h 12.197291 c 2.248959,0 3.995209,0.185209 5.185834,0.582084 1.164166,0.370416 2.196041,1.137708 2.883958,2.169583 0.767292,1.137708 1.137708,2.460625 1.11125,3.836458 0.07937,2.328334 -1.11125,4.550833 -3.148542,5.715 -0.79375,0.449792 -1.666875,0.767292 -2.566458,0.926042 0.661458,0.185208 1.322917,0.502708 1.905,0.873125 0.449792,0.370416 0.820208,0.79375 1.164167,1.243541 0.396875,0.449792 0.740833,0.9525 1.031875,1.481667 l 3.545416,6.852708 H 45.698302 L 41.782469,66.774304 C 41.27976,65.848262 40.856427,65.23972 40.459552,64.948679 39.930385,64.578262 39.295385,64.393054 38.660385,64.393054 h -0.635 v 9.604375 h -7.328958 z m 7.328958,-14.075833 h 3.095625 c 0.661459,-0.05292 1.296458,-0.15875 1.931458,-0.3175 0.47625,-0.07937 0.899584,-0.343958 1.190625,-0.740833 0.714375,-0.9525 0.608542,-2.301875 -0.264583,-3.122084 -0.47625,-0.396875 -1.402292,-0.608541 -2.725208,-0.608541 h -3.227917 z m -8.995833,34.342916 6.958542,-0.449792 c 0.15875,1.137709 0.449791,1.984375 0.926041,2.592917 0.740834,0.9525 1.825625,1.455208 3.227917,1.455208 1.031875,0 1.852083,-0.238125 2.407708,-0.740833 0.529167,-0.423333 0.846667,-1.031875 0.846667,-1.693333 0,-0.635 -0.291042,-1.243542 -0.79375,-1.640417 -0.529167,-0.47625 -1.772708,-0.9525 -3.757083,-1.375833 -3.201459,-0.714375 -5.503334,-1.666875 -6.852709,-2.883959 -1.349375,-1.137708 -2.116666,-2.804583 -2.06375,-4.577291 0,-1.217083 0.370417,-2.434167 1.058334,-3.439583 0.79375,-1.137709 1.878541,-2.037292 3.175,-2.54 1.402291,-0.608542 3.360208,-0.926042 5.820833,-0.926042 3.01625,0 5.318125,0.555625 6.905625,1.693333 1.5875,1.137709 2.513541,2.910417 2.804583,5.371042 l -6.879167,0.396875 c -0.185208,-1.058333 -0.555625,-1.825625 -1.164166,-2.328333 -0.582083,-0.502709 -1.402292,-0.740834 -2.434167,-0.714375 -0.846666,0 -1.481666,0.185208 -1.905,0.555625 -0.423333,0.3175 -0.661458,0.79375 -0.635,1.322916 0,0.396875 0.211667,0.767292 0.529167,1.005417 0.343958,0.3175 1.164167,0.608542 2.460625,0.873125 3.201458,0.687917 5.476875,1.375833 6.879166,2.090208 1.402292,0.714375 2.407709,1.5875 3.01625,2.619375 0.635,1.058333 0.9525,2.275417 0.9525,3.4925 0,1.481667 -0.449791,2.936875 -1.27,4.180417 -0.873125,1.296458 -2.090208,2.301873 -3.518958,2.910413 -1.508125,0.66146 -3.413125,1.00542 -5.688541,1.00542 -4.021667,0 -6.799792,-0.76729 -8.360834,-2.32833 -1.561041,-1.587503 -2.434166,-3.54542 -2.645833,-5.92667 z"
         id="path3918"
         style="fill:#ffffff;stroke-width:0.264583" />
      <path
         d="m 64.219135,92.438887 6.402916,1.931458 c -0.343958,1.613958 -1.058333,3.148542 -2.037291,4.497917 -0.899583,1.190628 -2.090208,2.116668 -3.439583,2.725208 -1.375834,0.60854 -3.122084,0.92604 -5.23875,0.92604 -2.566459,0 -4.683125,-0.37042 -6.297084,-1.11125 -1.640416,-0.74083 -3.042708,-2.063748 -4.233333,-3.94229 -1.190625,-1.878542 -1.772708,-4.28625 -1.772708,-7.223125 0,-3.915833 1.031875,-6.932083 3.122083,-9.022291 2.090208,-2.090209 5.027083,-3.148542 8.837083,-3.148542 2.989792,0 5.318125,0.608542 7.037917,1.799167 1.693333,1.217083 2.963333,3.069166 3.81,5.55625 l -6.455833,1.42875 c -0.15875,-0.555625 -0.396875,-1.11125 -0.714375,-1.5875 -0.396875,-0.555625 -0.899584,-0.978959 -1.508125,-1.296459 -0.608542,-0.3175 -1.296459,-0.449791 -1.984375,-0.449791 -1.666875,0 -2.936875,0.661458 -3.81,2.010833 -0.661459,0.978958 -1.005417,2.54 -1.005417,4.656666 0,2.619375 0.396875,4.418542 1.190625,5.3975 0.79375,0.978959 1.905,1.455209 3.360208,1.455209 1.402292,0 2.460625,-0.396875 3.175,-1.164167 0.714375,-0.820208 1.243542,-1.957917 1.561042,-3.439583 z m 14.948958,-13.97 h 7.3025 v 8.281458 h 7.990417 v -8.281458 h 7.35542 v 23.653753 h -7.35542 v -9.57792 h -7.990417 v 9.57792 h -7.3025 z"
         id="path3920"
         style="fill:#ffffff;stroke-width:0.264583" />
      <path
         d="m 100.81101,90.295762 c 0,-3.862917 1.08479,-6.879167 3.22792,-9.022292 2.14312,-2.143125 5.15937,-3.227916 8.99583,-3.227916 3.94229,0 6.95854,1.058333 9.10167,3.175 2.14312,2.116666 3.20145,5.08 3.20145,8.889999 0,2.778125 -0.47625,5.027084 -1.40229,6.799792 -0.89958,1.74625 -2.30187,3.175005 -4.02166,4.127505 -1.77271,0.97895 -3.96875,1.48166 -6.58813,1.48166 -2.67229,0 -4.86833,-0.42333 -6.61458,-1.27 -1.79917,-0.89958 -3.28084,-2.301873 -4.25979,-4.021665 -1.0848,-1.852083 -1.64042,-4.153958 -1.64042,-6.932083 z m 7.3025,0.02646 c 0,2.38125 0.44979,4.101042 1.32292,5.159375 0.87312,1.031875 2.0902,1.561042 3.62479,1.561042 1.56104,0 2.77812,-0.502709 3.65125,-1.534584 0.87312,-1.031875 1.29646,-2.8575 1.29646,-5.503333 0,-2.2225 -0.4498,-3.862916 -1.34938,-4.868333 -0.89958,-1.031875 -2.11667,-1.534583 -3.65125,-1.534583 -1.34937,-0.05292 -2.64583,0.529166 -3.54542,1.561041 -0.89958,1.031875 -1.34937,2.751667 -1.34937,5.159375 z m 24.71208,-0.02646 c 0,-3.862917 1.08479,-6.879167 3.22792,-9.022292 2.14312,-2.143125 5.15937,-3.227916 8.99583,-3.227916 3.94229,0 6.985,1.058333 9.10167,3.175 2.11667,2.116666 3.20146,5.08 3.20146,8.889999 0,2.778125 -0.47625,5.027084 -1.40229,6.799792 -0.89959,1.74625 -2.30188,3.175005 -4.02167,4.127505 -1.77271,0.97895 -3.96875,1.48166 -6.58813,1.48166 -2.67229,0 -4.86833,-0.42333 -6.61458,-1.27 -1.79917,-0.89958 -3.28083,-2.301873 -4.25979,-4.021665 -1.08479,-1.852083 -1.64042,-4.153958 -1.64042,-6.932083 z m 7.3025,0.02646 c 0,2.38125 0.44979,4.101042 1.32292,5.159375 0.87312,1.031875 2.09021,1.561042 3.62479,1.561042 1.56104,0 2.77813,-0.502709 3.65125,-1.534584 0.87313,-1.031875 1.29646,-2.8575 1.29646,-5.503333 0,-2.2225 -0.44979,-3.862916 -1.34938,-4.868333 -0.89958,-1.031875 -2.11666,-1.534583 -3.65125,-1.534583 -1.34937,-0.05292 -2.67229,0.529166 -3.54541,1.561041 -0.89959,1.031875 -1.34938,2.751667 -1.34938,5.159375 z"
         id="path3922"
         style="fill:#ffffff;stroke-width:0.264583" />
      <path
         d="m 156.58518,78.468887 h 7.3025 v 17.832916 h 11.40354 v 5.820837 h -18.7325 V 78.468887 Z"
         id="path3924"
         style="fill:#ffffff;stroke-width:0.264583" />
      <path
         d="m 132.85205,64.419512 2.64583,-1.852083 3.25438,4.630208 c 0.55562,0.740833 0.97896,1.534583 1.29646,2.407708 0.18521,0.661459 0.13229,1.375834 -0.13229,2.010834 -0.34396,0.79375 -0.89959,1.455208 -1.64042,1.931458 -0.87313,0.608542 -1.61396,0.9525 -2.24896,1.058333 -0.60854,0.105834 -1.24354,0 -1.82562,-0.264583 -0.635,-0.3175 -1.19063,-0.767292 -1.61396,-1.349375 l 2.27541,-2.116667 c 0.18521,0.291042 0.42334,0.555625 0.68792,0.767292 0.18521,0.132292 0.39688,0.211667 0.635,0.211667 0.18521,0 0.37042,-0.07937 0.50271,-0.185209 0.26458,-0.15875 0.44979,-0.47625 0.42333,-0.79375 -0.0794,-0.449791 -0.26458,-0.899583 -0.55562,-1.243541 z m 7.9375,2.936875 2.40771,-1.905 c 0.26458,0.3175 0.60854,0.555625 0.97896,0.687917 0.52916,0.15875 1.08479,0.05292 1.53458,-0.291042 0.3175,-0.211667 0.58208,-0.502708 0.68792,-0.873125 0.15875,-0.47625 -0.10584,-1.005417 -0.58209,-1.164167 -0.0794,-0.02646 -0.15875,-0.05292 -0.23812,-0.05292 -0.3175,-0.02646 -0.87313,0.105833 -1.69333,0.449791 -1.34938,0.555625 -2.40771,0.767292 -3.20146,0.687917 -0.76729,-0.07937 -1.48167,-0.47625 -1.905,-1.137708 -0.3175,-0.449792 -0.47625,-0.978959 -0.50271,-1.508125 0,-0.608542 0.15875,-1.217083 0.50271,-1.719792 0.50271,-0.714375 1.11125,-1.322916 1.85208,-1.799166 1.11125,-0.767292 2.09021,-1.137709 2.93688,-1.137709 0.84666,0 1.64041,0.396875 2.38125,1.217084 l -2.38125,1.878541 C 143.09143,60.080342 142.19184,59.94805 141.5833,60.4243 l -0.0794,0.07937 c -0.26459,0.15875 -0.4498,0.396875 -0.55563,0.687917 -0.0794,0.211666 -0.0265,0.449791 0.10583,0.634999 0.10584,0.132292 0.26459,0.238125 0.4498,0.238125 0.21166,0.02646 0.58208,-0.07937 1.11125,-0.3175 1.32291,-0.555624 2.32833,-0.873124 3.01625,-0.978958 0.58208,-0.105833 1.19062,-0.05292 1.74625,0.185209 0.5027,0.211666 0.92604,0.582083 1.21708,1.031874 0.37042,0.529167 0.58208,1.164167 0.60854,1.825625 0.0265,0.687917 -0.15875,1.349375 -0.52917,1.931459 -0.47625,0.714375 -1.08479,1.322916 -1.79916,1.799166 -1.45521,1.005417 -2.64584,1.42875 -3.59834,1.27 -1.03187,-0.15875 -1.87854,-0.687916 -2.48708,-1.455208 z"
         id="path3986"
         style="fill:#ffffff;stroke-width:0.264583" />
    </g>
  </g>
  <style
     id="style90"><![CDATA[
.st0 {
  fill:#ffffff;
}
.st1 {
  clip-path:url(#SVGID_2_);
}
.st2 {
  clip-path:url(#SVGID_4_);
}
.st3 {
  clip-path:url(#SVGID_6_);
}
.st4 {
  clip-path:url(#SVGID_8_);
}
.st5 {
  fill:#ffffff;
  stroke:#000000;
  stroke-width:4;
  stroke-miterlimit:10;
}
.st6 {
  clip-path:url(#SVGID_8_);
}
.st6,
.st7 {
  fill:none;
  stroke:#000000;
  stroke-width:4;
  stroke-miterlimit:10;
}
.st8,
.st9 {
  clip-path:url(#SVGID_10_);
}
.st9 {
  fill:none;
  stroke:#ffffff;
  stroke-width:4;
  stroke-miterlimit:10;
}
]]></style>
  <style
     id="style3914">.st0{fill:#fff}.st1{clip-path:url(#SVGID_2_)}.st2{clip-path:url(#SVGID_4_)}.st3{clip-path:url(#SVGID_6_)}.st4{clip-path:url(#SVGID_8_)}.st5{fill:#fff;stroke:#000;stroke-width:4;stroke-miterlimit:10}.st6{clip-path:url(#SVGID_8_)}.st6,.st7{fill:none;stroke:#000;stroke-width:4;stroke-miterlimit:10}.st8,.st9{clip-path:url(#SVGID_10_)}.st9{fill:none;stroke:#000;stroke-width:4;stroke-miterlimit:10}</style>
</svg>
